<?xml version="1.0" encoding="UTF-8"?>
<svg xmlns="http://www.w3.org/2000/svg" width="1200" height="628" viewBox="0 0 1200 628">
  <rect width="1200" height="628" fill="#050a12"/>
  <rect x="70" y="170" width="4" height="288" rx="2" fill="#00c8ff" opacity="0.5"/>
  <circle cx="118" cy="198" r="23" fill="none" stroke="#00c8ff" stroke-width="1.4" stroke-opacity="0.5"/>
  <circle cx="118" cy="198" r="7" fill="#00c8ff" opacity="0.7"/>
  <text x="160" y="190" font-family="DM Mono, monospace" font-size="17" fill="#4a6380" letter-spacing="4.5">STELLAR</text>
  <text x="160" y="215" font-family="DM Mono, monospace" font-size="17" fill="#00c8ff" letter-spacing="4.5">MONITOR</text>
  <text x="74" y="340" font-family="Outfit, sans-serif" font-size="90" font-weight="800" fill="#e8f0fa" letter-spacing="-3">On-chain.</text>
  <text x="74" y="435" font-family="Outfit, sans-serif" font-size="90" font-weight="800" fill="#00c8ff" letter-spacing="-3">Real-time.</text>
  <text x="78" y="490" font-family="DM Mono, monospace" font-size="19" fill="#3d5268" letter-spacing="2.5">STELLAR NETWORK INTELLIGENCE</text>
  <text x="78" y="580" font-family="DM Mono, monospace" font-size="19" fill="#2a3d52" letter-spacing="1.8">stellarmonitor.xyz</text>
  <circle cx="870" cy="230" r="9" fill="#00c8ff" opacity="0.9"/>
  <circle cx="990" cy="170" r="7" fill="#00c8ff" opacity="0.6"/>
  <circle cx="1100" cy="250" r="11" fill="#00e87a" opacity="0.8"/>
  <circle cx="1020" cy="345" r="7" fill="#00c8ff" opacity="0.5"/>
  <circle cx="900" cy="395" r="9" fill="#a78bfa" opacity="0.7"/>
  <circle cx="795" cy="320" r="5" fill="#00c8ff" opacity="0.5"/>
  <circle cx="935" cy="478" r="7" fill="#00c8ff" opacity="0.4"/>
  <circle cx="1060" cy="453" r="9" fill="#00e87a" opacity="0.5"/>
  <line x1="870" y1="230" x2="990" y2="170" stroke="#00c8ff" stroke-width="0.9" stroke-opacity="0.25"/>
  <line x1="990" y1="170" x2="1100" y2="250" stroke="#00c8ff" stroke-width="0.9" stroke-opacity="0.2"/>
  <line x1="1100" y1="250" x2="1020" y2="345" stroke="#00c8ff" stroke-width="0.9" stroke-opacity="0.2"/>
  <line x1="1020" y1="345" x2="900" y2="395" stroke="#00c8ff" stroke-width="0.9" stroke-opacity="0.25"/>
  <line x1="900" y1="395" x2="795" y2="320" stroke="#00c8ff" stroke-width="0.9" stroke-opacity="0.2"/>
  <circle cx="1100" cy="250" r="22" fill="none" stroke="#00e87a" stroke-width="1.2" stroke-opacity="0.35"/>
  <circle cx="870" cy="230" r="18" fill="none" stroke="#00c8ff" stroke-width="1" stroke-opacity="0.3"/>
</svg>